Coordinates
version=1
nRows=16
nColumns=36
inDegrees=yes

Units are S.I. units (second, meters, Newtons, ...)
If the header above contains a line with 'inDegrees', this indicates whether rotational values are in degrees (yes) or radians (no).

endheader
time	pelvis_tilt	pelvis_list	pelvis_rotation	pelvis_tx	pelvis_ty	pelvis_tz	hip_flexion_r	hip_adduction_r	hip_rotation_r	knee_angle_r	knee_angle_r_beta	ankle_angle_r	subtalar_angle_r	mtp_angle_r	hip_flexion_l	hip_adduction_l	hip_rotation_l	knee_angle_l	knee_angle_l_beta	ankle_angle_l	subtalar_angle_l	mtp_angle_l	lumbar_extension	lumbar_bending	lumbar_rotation	arm_flex_r	arm_add_r	arm_rot_r	elbow_flex_r	pro_sup_r	arm_flex_l	arm_add_l	arm_rot_l	elbow_flex_l	pro_sup_l
      1.96250000	     -8.27101996	      3.26098217	     -0.02706196	      0.33992462	      1.16169020	     -0.03365005	      8.20429551	     -5.79047541	    -14.39302656	      0.53039616	      0.00925716	    -35.92372332	      4.89720419	     -7.49999987	      6.83523182	     -4.77931045	    -13.08086571	      1.89498894	      0.03307380	    -32.82765830	      3.18251969	     -7.49999987	     -0.64072636	     -3.64950443	     -2.48351687	    -62.32752047	     10.55381692	    -39.29631734	     24.25813309	     90.82242718	    -39.95275951	    -13.07897812	   -202.14654191	     44.89005884	     34.65330983
      1.96666670	     -8.16754816	      3.17637427	      0.07673516	      0.33969534	      1.16590692	     -0.03535084	      7.94313348	     -5.63702070	    -13.97870673	      0.74576551	      0.01301606	    -35.97044240	      4.83589019	     -7.49999987	      6.99023231	     -5.04346212	    -13.04153800	      2.49762488	      0.04359178	    -33.12393693	      2.17403914	     -7.49999987	     -0.29586795	     -3.49775099	     -3.42317874	    -63.77440084	     11.08954038	    -39.70838017	     25.57231009	     87.88850217	    -40.30810999	    -12.66863557	   -202.36945195	     46.27912098	     36.48815049
      1.97083330	     -8.07984119	      3.06333442	      0.06336339	      0.33967564	      1.16925266	     -0.03563590	      7.82553163	     -5.45448778	    -12.80959268	      1.24427716	      0.02171673	    -35.94738694	      4.41822945	     -7.49999987	      7.20212957	     -5.33233719	    -13.05395000	      3.17954233	      0.05549348	    -33.14360205	      1.38339686	     -7.49999987	     -0.41545810	     -3.24219994	     -3.53835094	    -62.18957689	     10.77580917	    -40.22287139	     20.75776533	     79.34823906	    -39.86407061	    -12.95998584	   -203.28189162	     47.53768546	     40.96671316
      1.97500000	     -8.05251454	      2.98505712	      0.29813719	      0.34283845	      1.18090563	     -0.03386211	      7.68733045	     -5.33049243	    -11.90814720	      1.82597871	      0.03186934	    -35.89821435	      4.54337056	     -7.49999987	      7.38758953	     -5.62682324	    -13.01258574	      3.75478820	      0.06553342	    -33.18698888	      0.91143566	     -7.49999987	     -0.49779273	     -3.01168879	     -2.68402165	    -61.19239696	     11.31405908	    -41.08666487	     17.30343559	     79.79558828	    -38.88857493	    -12.82339833	   -200.01088962	     48.91464448	     31.78650001
      1.97916670	     -8.04234961	      2.80893789	      0.50803968	      0.34138929	      1.18229667	     -0.03848238	      7.76261671	     -5.26410890	    -10.98040650	      2.60964599	      0.04554691	    -35.82852944	      4.58107881	     -7.49999987	      7.66648320	     -5.88708012	    -12.64370729	      4.32897434	      0.07555486	    -32.99479409	     -0.08502786	     -7.49999987	     -0.53095274	     -2.34666800	     -2.40010124	    -60.90145129	     11.36235721	    -41.37328202	     15.11573176	     80.01179486	    -38.50528186	    -12.69817996	   -198.93688722	     49.48516365	     31.92574822
      1.98333330	     -8.03178106	      2.63795948	      0.72691120	      0.34215939	      1.18875288	     -0.03939483	      7.83641681	     -5.18514548	    -10.04539223	      3.42354157	      0.05975207	    -35.65828651	      4.75294433	     -7.49999987	      7.85324395	     -6.05581929	    -12.19110737	      4.74797792	      0.08286785	    -32.96373008	     -0.99248992	     -7.49999987	     -0.61249000	     -1.73018422	     -1.34320132	    -59.94323291	     11.29052216	    -40.90110799	     12.12089742	     80.52261143	    -37.63735344	    -12.71642706	   -197.22927828	     49.53848914	     32.10616425
      1.98750000	     -7.99924870	      2.53267771	      0.82317063	      0.34397190	      1.20088109	     -0.03963265	      7.80045223	     -5.09320149	     -9.44450443	      3.97772758	      0.06942444	    -35.72887476	      5.47112664	     -7.49999987	      7.88138120	     -6.14987767	    -11.82903193	      5.01238903	      0.08748269	    -32.89462474	     -1.23556358	     -7.49999987	     -0.42913112	     -1.32639136	     -0.50076570	    -59.98880396	     10.23162970	    -26.75391313	     10.85990967	     95.18186031	    -36.14447217	    -12.70916219	   -195.55091631	     50.86030898	     31.08384165
      1.99166670	     -7.95627178	      2.26277573	      0.74755504	      0.34234727	      1.20213920	     -0.03933541	      7.93064945	     -4.76618340	     -8.64522751	      4.66271615	      0.08137975	    -35.52764783	      5.99117306	     -7.49999987	      8.01306597	     -6.49698964	    -11.44712592	      5.27059794	      0.09198929	    -32.63873709	     -1.49654584	     -7.49999987	     -0.64478176	     -0.75870886	      0.67564011	    -59.22820311	     10.47762595	    -22.71571716	      9.61136781	     97.09340615	    -34.25672005	    -13.51356920	   -195.37992597	     53.12986849	     30.46858657
      1.99583330	     -7.98372413	      2.01674467	      0.79299720	      0.34249935	      1.20280788	     -0.03802543	      8.10336693	     -4.38132259	     -7.60732580	      5.22014900	      0.09110879	    -35.50293171	      6.14487279	     -7.49999987	      8.25166100	     -6.85890705	    -11.18434763	      5.60337677	      0.09779737	    -32.41887979	     -2.05890904	     -7.49999987	     -0.75850423	     -0.26404771	      1.50111381	    -58.78790082	     11.01165156	    -21.37472028	      8.47520701	     97.46401996	    -32.81997050	    -14.37824479	   -195.56854303	     54.98378746	     30.92253694
      2.00000000	     -7.95908395	      1.79949768	      0.76642581	      0.34378092	      1.20238013	     -0.03981204	      8.19977496	     -4.07365803	     -6.62885588	      5.85554184	      0.10219848	    -35.28254021	      6.41520672	     -7.49999987	      8.40346049	     -7.13683972	    -10.64490972	      6.03362312	      0.10530659	    -31.91479205	     -2.88940397	     -7.49999987	     -1.15331954	      0.02094810	      2.53711752	    -58.85997728	      7.25579665	     36.58386224	     10.04856973	     91.67051385	    -32.08132669	    -14.87404807	   -195.68573962	     56.09539936	     32.77884348
      2.00416670	     -8.26465370	      1.63001823	      0.94548141	      0.34581086	      1.20933931	     -0.03671545	      8.59265166	     -3.70314560	     -5.72246667	      6.47778242	      0.11305863	    -34.61775499	      6.53934387	     -7.49999987	      8.87769949	     -7.45547684	    -10.20260540	      6.35390262	      0.11089652	    -31.59932626	     -3.55429434	     -7.49999987	     -1.90531985	     -0.54183936	      5.82209010	    -52.23511943	      1.30977723	     98.36059159	     24.31482917	     53.46923379	    -29.93800385	    -15.83438184	   -191.85531335	     57.13281739	     32.87700234
      2.00833330	     -8.18023237	      1.52792605	      1.19681698	      0.34771185	      1.21784680	     -0.03662199	      8.44736730	     -3.47236781	     -4.86863988	      6.76723312	      0.11811050	    -34.35579582	      6.69743988	     -7.49999987	      8.95582602	     -7.64922873	     -9.71073305	      6.62036870	      0.11554723	    -31.68595086	     -4.10653405	     -7.49999987	     -1.50064913	     -0.66174039	      4.96168038	    -53.67892456	      3.03910838	     97.29767406	     17.73710194	     53.29750460	    -32.02705850	    -15.36039509	   -193.99784347	     53.69267052	     32.39074771
      2.01250000	     -8.26280808	      1.32072001	      1.07859178	      0.34451454	      1.21714345	     -0.03855742	      8.78679374	     -3.16491060	     -4.05937473	      7.26722322	      0.12683697	    -33.96962301	      6.75293055	     -7.49999987	      9.21859765	     -7.93732436	     -9.34798649	      6.71373522	      0.11717678	    -31.59487476	     -4.74327653	     -7.49999987	     -1.68180108	     -0.57822758	      5.24692275	    -52.53293263	      1.50664511	     97.45813946	     20.53589317	     53.37827460	    -32.63392559	    -14.32038871	   -193.53474327	     51.91269751	     32.37868947
      2.01666670	     -8.24611712	      1.16935305	      0.95326174	      0.34572446	      1.22283157	     -0.03973365	      8.91704031	     -2.96187914	     -3.49438021	      7.71261689	      0.13461056	    -33.71162929	      6.97777464	     -7.49999987	      9.32495583	     -8.12365257	     -9.18489853	      6.77326734	      0.11821582	    -31.27546252	     -5.18591286	     -7.49999987	     -1.64330859	     -0.53212315	      5.12091082	    -52.27470849	      0.87643766	     97.41083074	     20.06977605	     53.33503572	    -32.77860777	    -13.56879111	   -193.93751458	     51.56932539	     32.35872930
      2.02083330	     -8.41028822	      1.07237562	      0.97927935	      0.34524333	      1.22711522	     -0.03942991	      9.21900840	     -2.85141376	     -2.92276920	      8.02256992	      0.14002026	    -33.18125578	      7.15710557	     -7.49999987	      9.71821244	     -8.21420510	     -8.92165354	      6.86300320	      0.11978200	    -31.09012946	     -6.12922374	     -7.49999987	     -1.65281391	     -0.57518064	      3.90776434	    -51.41262187	     -0.18242844	     97.34579999	     19.26063396	     53.05358993	    -34.26290343	    -12.43075182	   -195.24402633	     47.77909224	     32.05742234
      2.02500000	     -8.52832521	      1.03067122	      0.96576669	      0.34546912	      1.22998795	     -0.03894496	      9.48456067	     -2.76431542	     -2.42228677	      8.33655090	      0.14550026	    -32.59316227	      7.31819870	     -7.49999987	      9.96984690	     -8.32754379	     -9.15464605	      6.85178600	      0.11958623	    -30.79630895	     -6.81537914	     -7.49999987	     -1.69101784	     -0.79794046	      3.27125406	    -50.57248800	     -1.10338902	     97.60116812	     19.80650609	     53.37064636	    -34.71860544	    -11.61065020	   -195.97768521	     46.46753410	     33.00485370
